<svg xmlns="http://www.w3.org/2000/svg" viewBox="0 0 64 64" role="img" aria-label="PB favicon">
  <defs>
    <linearGradient id="bg" x1="0%" y1="0%" x2="100%" y2="100%">
      <stop offset="0%" stop-color="#0f172a" />
      <stop offset="100%" stop-color="#0ea5e9" />
    </linearGradient>
  </defs>
  <rect width="64" height="64" rx="16" fill="url(#bg)" />
  <path
    d="M18 14h15.5c7 0 12 4.6 12 10.8 0 4-2 7-5.6 8.8 4.8 1.5 7.6 5 7.6 10.2C47.5 50.8 41.9 55 34 55H18V14zm8 7v10h7.5c2.8 0 4.5-1.8 4.5-4.8 0-3.2-2-5.2-5.3-5.2H26zm0 16v11h8.1c3.4 0 5.4-2 5.4-5.3 0-3.6-2.3-5.7-6.1-5.7H26z"
    fill="#f8fafc"
  />
</svg>
